Coordinates
version=1
nRows=24
nColumns=22
inDegrees=yes

Units are S.I. units (second, meters, Newtons, ...)
If the header above contains a line with 'inDegrees', this indicates whether rotational values are in degrees (yes) or radians (no).

endheader
time	pelvis_tilt	pelvis_list	pelvis_rotation	pelvis_tx	pelvis_ty	pelvis_tz	hip_flexion_r	hip_adduction_r	hip_rotation_r	knee_angle_r	ankle_angle_r	subtalar_angle_r	hip_flexion_l	hip_adduction_l	hip_rotation_l	knee_angle_l	ankle_angle_l	subtalar_angle_l	lumbar_extension	lumbar_bending	lumbar_rotation
      5.86000000	     -2.56504535	      0.34472675	    -96.50771729	      0.95457561	      1.00459798	      0.58229047	     16.73949992	      3.38760101	    -31.73371391	    -19.15408329	      6.10984471	     -9.15002758	     -4.50719956	    -11.75093508	    -10.40648911	    -49.08353815	    -10.65778046	     15.34815595	     -0.18320797	      1.31024561	     -4.41161261
      5.87000000	     -2.52345631	      0.23894181	    -96.98118357	      0.95062991	      1.00540054	      0.58897349	     16.22565775	      3.66991759	    -31.10005728	    -19.16659362	      6.46602288	     -9.41355068	     -3.26672011	    -11.57251195	     -9.36615599	    -50.74368050	     -9.40109463	     15.20652027	     -0.38512211	      1.29595376	     -4.32864134
      5.88000000	     -2.49205970	      0.13256214	    -97.50149963	      0.94661340	      1.00620162	      0.59544428	     15.70228273	      3.97549384	    -30.43118342	    -19.14594941	      6.80188330	     -9.64006458	     -2.02559795	    -11.39350381	     -8.43967426	    -52.25936514	     -8.13361068	     15.11108198	     -0.59235968	      1.28143721	     -4.19992380
      5.89000000	     -2.46521392	      0.03913281	    -98.06431351	      0.94249334	      1.00699292	      0.60172552	     15.16875448	      4.30505861	    -29.74726627	    -19.06291437	      7.10844609	     -9.84852349	     -0.77586682	    -11.21450423	     -7.60739392	    -53.61624116	     -6.89460287	     15.03276483	     -0.78375438	      1.25632160	     -4.01775718
      5.90000000	     -2.43678786	     -0.10602648	    -98.67326318	      0.93827371	      1.00784977	      0.60781145	     14.57033619	      4.62699888	    -29.07936762	    -18.95558172	      7.41008674	     -9.99604385	      0.40148589	    -11.02599372	     -6.87914568	    -54.79451237	     -5.67817930	     14.90317498	     -1.04100091	      1.20403686	     -3.79066047
      5.91000000	     -2.42895951	     -0.15541240	    -99.32650620	      0.93388092	      1.00854582	      0.61363380	     14.05382430	      5.00802703	    -28.35084083	    -18.78992213	      7.63402344	    -10.17979161	      1.69019234	    -10.89808919	     -6.24784337	    -55.84376048	     -4.56226028	     14.75530529	     -1.20161154	      1.17099171	     -3.55477488
      5.92000000	     -2.40442045	     -0.23951391	   -100.01721839	      0.92937417	      1.00928884	      0.61930824	     13.47923165	      5.36638592	    -27.65197315	    -18.58073098	      7.85231605	    -10.32675566	      2.91138380	    -10.74530197	     -5.67888010	    -56.68707659	     -3.47739387	     14.51874816	     -1.40049761	      1.09267618	     -3.26751000
      5.93000000	     -2.37981991	     -0.32387959	   -100.75532670	      0.92472840	      1.01000351	      0.62478012	     12.89491633	      5.72504741	    -26.93764794	    -18.35088873	      8.04360688	    -10.44337006	      4.10775803	    -10.60520682	     -5.18745529	    -57.34543962	     -2.44140466	     14.20829576	     -1.61170637	      0.99709942	     -2.94926054
      5.94000000	     -2.34881388	     -0.39477783	   -101.53682479	      0.91994517	      1.01067396	      0.63007672	     12.31074605	      6.07916280	    -26.21564744	    -18.09135908	      8.20603103	    -10.54125451	      5.28784651	    -10.47102333	     -4.75896028	    -57.81047049	     -1.44845304	     13.82572628	     -1.81199234	      0.87998090	     -2.59806882
      5.95000000	     -2.30962342	     -0.45220180	   -102.35991616	      0.91504010	      1.01129253	      0.63520330	     11.73213790	      6.42185939	    -25.48812666	    -17.81432484	      8.34002040	    -10.62386831	      6.44896342	    -10.33987655	     -4.38494613	    -58.08191888	     -0.49069015	     13.38266042	     -2.00047185	      0.74267639	     -2.22398530
      5.96000000	     -2.26040265	     -0.49353733	   -103.22054625	      0.91003316	      1.01185217	      0.64015683	     11.16743653	      6.74984025	    -24.75167144	    -17.52821368	      8.44389904	    -10.69730892	      7.59307434	    -10.20925090	     -4.05634303	    -58.16057348	      0.43049053	     12.88191646	     -2.17464064	      0.58811601	     -1.83634129
      5.97000000	     -2.20116363	     -0.51953061	   -104.12033255	      0.90493598	      1.01235076	      0.64495404	     10.61851695	      7.06163025	    -23.99889861	    -17.24053917	      8.52522704	    -10.76483068	      8.71452035	    -10.07674241	     -3.76709228	    -58.05016950	      1.33071240	     12.35419754	     -2.33111440	      0.41952897	     -1.43877948
      5.98000000	     -2.12999873	     -0.53279963	   -105.05331139	      0.89976915	      1.01278899	      0.64960641	     10.08537219	      7.35302471	    -23.23400150	    -16.95499372	      8.59061699	    -10.82860769	      9.81141818	     -9.93908451	     -3.50874624	    -57.75773648	      2.20419043	     11.82370722	     -2.46991886	      0.23616292	     -1.04065713
      5.99000000	     -2.04553302	     -0.53949619	   -106.01032689	      0.89458041	      1.01316807	      0.65410848	      9.57670833	      7.61520303	    -22.45795151	    -16.69698230	      8.63369619	    -10.89770691	     10.87809570	     -9.78436977	     -3.26271587	    -57.28998902	      3.05405239	     11.20458194	     -2.60228175	      0.03824413	     -0.65143290
      6.00000000	     -1.95549398	     -0.53299026	   -107.01550450	      0.88928620	      1.01348111	      0.65850034	      9.07606922	      7.87239790	    -21.64177140	    -16.43049770	      8.69931546	    -10.95303419	     11.90756454	     -9.64206150	     -3.06473666	    -56.65367676	      3.88194128	     10.77906233	     -2.71208859	     -0.17029830	     -0.23221301
      6.01000000	     -1.85246690	     -0.52972087	   -108.04737537	      0.88397664	      1.01374558	      0.66277969	      8.58810906	      8.09972236	    -20.80511951	    -16.19165238	      8.76031861	    -11.01213348	     12.88745226	     -9.47804240	     -2.87149575	    -55.85188203	      4.67123142	     10.33309752	     -2.82099154	     -0.39355991	      0.18300172
      6.02000000	     -1.74502486	     -0.53507204	   -109.10086280	      0.87869730	      1.01395802	      0.66696336	      8.11313954	      8.29492015	    -19.98062748	    -15.99393123	      8.82904153	    -11.06265787	     13.81214565	     -9.29768341	     -2.67577863	    -54.90614256	      5.47582270	      9.99456917	     -2.93756468	     -0.62055081	      0.60730677
      6.03000000	     -1.62494531	     -0.56295049	   -110.19138212	      0.87339019	      1.01417517	      0.67108152	      7.61171033	      8.46517110	    -19.07205025	    -15.78595445	      8.90853036	    -11.11980097	     14.65444072	     -9.09235590	     -2.50011263	    -53.80133463	      6.13030133	      9.62799050	     -3.06455797	     -0.86962017	      1.03244973
      6.04000000	     -1.50700424	     -0.60479961	   -111.28396836	      0.86816269	      1.01435840	      0.67514604	      7.11639635	      8.60440154	    -18.18091717	    -15.61757726	      9.00000738	    -11.16492563	     15.43255925	     -8.86212166	     -2.28702888	    -52.56813143	      6.76800230	      9.37717435	     -3.20351862	     -1.11841026	      1.45511347
      6.05000000	     -1.38690431	     -0.67524995	   -112.39449547	      0.86303642	      1.01454894	      0.67918244	      6.60199408	      8.70745238	    -17.25523607	    -15.46751093	      9.10399391	    -11.20555823	     16.12441689	     -8.59035507	     -2.04256248	    -51.20851155	      7.28475056	      9.16470659	     -3.36534711	     -1.36421011	      1.87586340
      6.06000000	     -1.27047385	     -0.76017964	   -113.50393320	      0.85799361	      1.01471730	      0.68319426	      6.08213908	      8.78649567	    -16.31336262	    -15.33688170	      9.22382391	    -11.24034550	     16.75017172	     -8.28585781	     -1.73737784	    -49.74216058	      7.68077242	      9.00367762	     -3.53577822	     -1.61038099	      2.28606874
      6.07000000	     -1.15251264	     -0.83279722	   -114.61731237	      0.85306217	      1.01481488	      0.68719609	      5.59091481	      8.84409934	    -15.35783066	    -15.23613716	      9.35342465	    -11.27167655	     17.34214467	     -7.95385671	     -1.36933618	    -48.19092435	      7.97051496	      8.90825760	     -3.68353204	     -1.84060051	      2.69766752
      6.08000000	     -1.04513132	     -0.92175759	   -115.72240224	      0.84822902	      1.01489998	      0.69120871	      5.07718122	      8.88627659	    -14.37332423	    -15.13237968	      9.50438241	    -11.29867081	     17.86830688	     -7.59441445	     -0.92714225	    -46.56291743	      8.09468637	      8.85563332	     -3.84471469	     -2.05788410	      3.08516542
      6.09000000	     -0.94593333	     -1.00120927	   -116.82566888	      0.84347227	      1.01491894	      0.69523852	      4.57209572	      8.91943497	    -13.37290709	    -15.03754388	      9.66822216	    -11.32025851	     18.36071229	     -7.22547219	     -0.41961717	    -44.88566228	      8.12050156	      8.86784600	     -3.98824991	     -2.25313364	      3.46921247
